<svg width="486" height="145" viewBox="0 0 486 145" fill="none" xmlns="http://www.w3.org/2000/svg">
<g id="Logo">
<path id="TOTO" d="M63.0082 30.4H1.64817V48.572H22.8882V113H41.7682V48.572H63.0082V30.4ZM129.56 114.652C153.278 114.652 172.512 96.008 172.512 71.7C172.512 47.392 153.278 28.748 129.56 28.748C105.842 28.748 86.6082 47.392 86.6082 71.7C86.6082 96.008 105.842 114.652 129.56 114.652ZM129.56 96.244C116.108 96.244 105.488 86.45 105.488 71.7C105.488 56.95 116.108 47.156 129.56 47.156C143.012 47.156 153.632 56.95 153.632 71.7C153.632 86.45 143.012 96.244 129.56 96.244ZM257.478 30.4H196.118V48.572H217.358V113H236.238V48.572H257.478V30.4ZM324.03 114.652C347.748 114.652 366.982 96.008 366.982 71.7C366.982 47.392 347.748 28.748 324.03 28.748C300.312 28.748 281.078 47.392 281.078 71.7C281.078 96.008 300.312 114.652 324.03 114.652ZM324.03 96.244C310.578 96.244 299.958 86.45 299.958 71.7C299.958 56.95 310.578 47.156 324.03 47.156C337.482 47.156 348.102 56.95 348.102 71.7C348.102 86.45 337.482 96.244 324.03 96.244Z" fill="white"/>
<g id="Group 1">
<rect id="Rectangle 1" x="379" y="29" width="53" height="86" fill="#3CBF77"/>
<path id="food from africa" d="M394.96 55H392.84V53.96C393.507 53.96 393.973 53.84 394.24 53.6C394.533 53.36 394.68 52.8933 394.68 52.2V39V38V36.08C394.68 33.7867 395.347 32.0533 396.68 30.88C398.013 29.7067 399.853 29.12 402.2 29.12C403.187 29.12 404.187 29.3333 405.2 29.76C406.24 30.1867 407.067 30.9467 407.68 32.04L403.96 34.6L403.68 34.32C403.893 33.9733 404 33.5467 404 33.04C404 32.4267 403.813 31.92 403.44 31.52C403.067 31.0933 402.52 30.88 401.8 30.88C400.707 30.88 399.88 31.2667 399.32 32.04C398.787 32.8133 398.52 33.9333 398.52 35.4V52.2C398.52 52.8933 398.653 53.36 398.92 53.6C399.213 53.84 399.693 53.96 400.36 53.96V55H398.24H394.96ZM396.08 39.76L391.8 38.76V36.92H396.08V39.76ZM401.72 36.92H404.84V39.16H398.12V37.68L401.72 36.92ZM413.267 36.56C415.08 36.56 416.627 36.9467 417.907 37.72C419.213 38.4667 420.2 39.5467 420.867 40.96C421.56 42.3733 421.907 44.0267 421.907 45.92C421.907 47.8133 421.56 49.4667 420.867 50.88C420.2 52.2933 419.213 53.3867 417.907 54.16C416.627 54.9067 415.08 55.28 413.267 55.28C410.547 55.28 408.427 54.44 406.907 52.76C405.387 51.08 404.627 48.8 404.627 45.92C404.627 44.0267 404.96 42.3733 405.627 40.96C406.32 39.5467 407.307 38.4667 408.587 37.72C409.893 36.9467 411.453 36.56 413.267 36.56ZM413.267 53.36C414.84 53.36 415.987 52.6933 416.707 51.36C417.453 50 417.827 48.1867 417.827 45.92C417.827 43.6533 417.453 41.8533 416.707 40.52C415.987 39.16 414.84 38.48 413.267 38.48C411.693 38.48 410.533 39.16 409.787 40.52C409.067 41.8533 408.707 43.6533 408.707 45.92C408.707 48.1867 409.067 50 409.787 51.36C410.533 52.6933 411.693 53.36 413.267 53.36ZM433.037 36.56C434.85 36.56 436.397 36.9467 437.677 37.72C438.984 38.4667 439.97 39.5467 440.637 40.96C441.33 42.3733 441.677 44.0267 441.677 45.92C441.677 47.8133 441.33 49.4667 440.637 50.88C439.97 52.2933 438.984 53.3867 437.677 54.16C436.397 54.9067 434.85 55.28 433.037 55.28C430.317 55.28 428.197 54.44 426.677 52.76C425.157 51.08 424.397 48.8 424.397 45.92C424.397 44.0267 424.73 42.3733 425.397 40.96C426.09 39.5467 427.077 38.4667 428.357 37.72C429.664 36.9467 431.224 36.56 433.037 36.56ZM433.037 53.36C434.61 53.36 435.757 52.6933 436.477 51.36C437.224 50 437.597 48.1867 437.597 45.92C437.597 43.6533 437.224 41.8533 436.477 40.52C435.757 39.16 434.61 38.48 433.037 38.48C431.464 38.48 430.304 39.16 429.557 40.52C428.837 41.8533 428.477 43.6533 428.477 45.92C428.477 48.1867 428.837 50 429.557 51.36C430.304 52.6933 431.464 53.36 433.037 53.36ZM457.404 32.32C457.404 31.6267 457.258 31.16 456.964 30.92C456.698 30.68 456.231 30.56 455.564 30.56V29.52H457.684H461.244V52.2C461.244 52.8933 461.378 53.36 461.644 53.6C461.938 53.84 462.418 53.96 463.084 53.96V55H460.964H457.404V32.32ZM458.924 40.88V50.68H457.524C457.258 51.9067 456.578 52.9867 455.484 53.92C454.418 54.8267 453.111 55.28 451.564 55.28C449.351 55.28 447.578 54.5733 446.244 53.16C444.938 51.7467 444.284 49.3333 444.284 45.92C444.284 42.5067 444.938 40.0933 446.244 38.68C447.578 37.2667 449.351 36.56 451.564 36.56C453.138 36.56 454.458 37 455.524 37.88C456.618 38.7333 457.284 39.7333 457.524 40.88H458.924ZM452.564 53.36C453.391 53.36 454.164 53.1333 454.884 52.68C455.631 52.2267 456.231 51.4533 456.684 50.36C457.164 49.24 457.404 47.76 457.404 45.92C457.404 44.08 457.164 42.6133 456.684 41.52C456.231 40.4 455.631 39.6133 454.884 39.16C454.164 38.7067 453.391 38.48 452.564 38.48C450.991 38.48 449.898 39.1333 449.284 40.44C448.671 41.7467 448.364 43.5733 448.364 45.92C448.364 48.32 448.658 50.16 449.244 51.44C449.831 52.72 450.938 53.36 452.564 53.36ZM394.96 84H392.84V82.96C393.507 82.96 393.973 82.84 394.24 82.6C394.533 82.36 394.68 81.8933 394.68 81.2V68V67V65.08C394.68 62.7867 395.347 61.0533 396.68 59.88C398.013 58.7067 399.853 58.12 402.2 58.12C403.187 58.12 404.187 58.3333 405.2 58.76C406.24 59.1867 407.067 59.9467 407.68 61.04L403.96 63.6L403.68 63.32C403.893 62.9733 404 62.5467 404 62.04C404 61.4267 403.813 60.92 403.44 60.52C403.067 60.0933 402.52 59.88 401.8 59.88C400.707 59.88 399.88 60.2667 399.32 61.04C398.787 61.8133 398.52 62.9333 398.52 64.4V81.2C398.52 81.8933 398.653 82.36 398.92 82.6C399.213 82.84 399.693 82.96 400.36 82.96V84H398.24H394.96ZM396.08 68.76L391.8 67.76V65.92H396.08V68.76ZM401.72 65.92H404.84V68.16H398.12V66.68L401.72 65.92ZM412.342 81.2C412.342 81.8933 412.475 82.36 412.742 82.6C413.035 82.84 413.515 82.96 414.182 82.96V84H412.062H408.782H406.662V82.96C407.328 82.96 407.795 82.84 408.062 82.6C408.355 82.36 408.502 81.8933 408.502 81.2V68.72C408.502 68.0267 408.355 67.56 408.062 67.32C407.795 67.08 407.328 66.96 406.662 66.96V65.92H408.782H412.342V81.2ZM412.422 72.32C412.742 70.4533 413.315 68.88 414.142 67.6C414.968 66.32 416.168 65.68 417.742 65.68C418.488 65.68 419.168 65.8267 419.782 66.12C420.422 66.3867 420.902 66.7733 421.222 67.28L419.902 70.96L419.462 70.84C419.488 70.2533 419.275 69.7333 418.822 69.28C418.368 68.8267 417.755 68.6 416.982 68.6C415.622 68.6 414.502 69.3733 413.622 70.92C412.768 72.44 412.342 75.0133 412.342 78.64H410.502V72.32H412.422ZM430.42 65.56C432.233 65.56 433.78 65.9467 435.06 66.72C436.366 67.4667 437.353 68.5467 438.02 69.96C438.713 71.3733 439.06 73.0267 439.06 74.92C439.06 76.8133 438.713 78.4667 438.02 79.88C437.353 81.2933 436.366 82.3867 435.06 83.16C433.78 83.9067 432.233 84.28 430.42 84.28C427.7 84.28 425.58 83.44 424.06 81.76C422.54 80.08 421.78 77.8 421.78 74.92C421.78 73.0267 422.113 71.3733 422.78 69.96C423.473 68.5467 424.46 67.4667 425.74 66.72C427.046 65.9467 428.606 65.56 430.42 65.56ZM430.42 82.36C431.993 82.36 433.14 81.6933 433.86 80.36C434.606 79 434.98 77.1867 434.98 74.92C434.98 72.6533 434.606 70.8533 433.86 69.52C433.14 68.16 431.993 67.48 430.42 67.48C428.846 67.48 427.686 68.16 426.94 69.52C426.22 70.8533 425.86 72.6533 425.86 74.92C425.86 77.1867 426.22 79 426.94 80.36C427.686 81.6933 428.846 82.36 430.42 82.36ZM457.998 76.8H456.958V70.76H458.078C458.265 69.2933 458.825 68.0667 459.758 67.08C460.692 66.0667 461.985 65.56 463.638 65.56C465.505 65.56 466.892 66.1333 467.798 67.28C468.732 68.4 469.198 70.04 469.198 72.2V81.2C469.198 81.8933 469.332 82.36 469.598 82.6C469.892 82.84 470.372 82.96 471.038 82.96V84H468.918H465.638H463.518V82.96C464.185 82.96 464.652 82.84 464.918 82.6C465.212 82.36 465.358 81.8933 465.358 81.2V72.92C465.358 71.08 465.158 69.76 464.758 68.96C464.358 68.16 463.598 67.76 462.478 67.76C461.172 67.76 460.092 68.4533 459.238 69.84C458.412 71.2267 457.998 73.5467 457.998 76.8ZM447.038 76.8H445.998V70.6H447.118C447.278 69.2667 447.798 68.0933 448.678 67.08C449.585 66.0667 450.905 65.56 452.638 65.56C454.425 65.56 455.758 66.12 456.638 67.24C457.545 68.36 457.998 70.0133 457.998 72.2V81.2C457.998 81.8933 458.132 82.36 458.398 82.6C458.692 82.84 459.172 82.96 459.838 82.96V84H457.718H454.438H452.318V82.96C452.985 82.96 453.452 82.84 453.718 82.6C454.012 82.36 454.158 81.8933 454.158 81.2V72.92C454.158 71.1067 453.958 69.8 453.558 69C453.158 68.1733 452.398 67.76 451.278 67.76C450.078 67.76 449.065 68.4133 448.238 69.72C447.438 71 447.038 73.36 447.038 76.8ZM447.038 81.2C447.038 81.8933 447.172 82.36 447.438 82.6C447.732 82.84 448.212 82.96 448.878 82.96V84H446.758H443.478H441.358V82.96C442.025 82.96 442.492 82.84 442.758 82.6C443.052 82.36 443.198 81.8933 443.198 81.2V68.72C443.198 68.0267 443.052 67.56 442.758 67.32C442.492 67.08 442.025 66.96 441.358 66.96V65.92H443.478H447.038V81.2ZM403.24 113V107.92H403.12C402.8 109.467 402.2 110.747 401.32 111.76C400.467 112.773 399.213 113.28 397.56 113.28C395.8 113.28 394.467 112.773 393.56 111.76C392.653 110.747 392.2 109.2 392.2 107.12C392.2 105.84 392.4 104.733 392.8 103.8L404.68 102.48V103.48L396.24 105.2C396 105.787 395.88 106.573 395.88 107.56C395.88 108.627 396.093 109.48 396.52 110.12C396.973 110.76 397.627 111.08 398.48 111.08C399.307 111.08 400.067 110.747 400.76 110.08C401.453 109.413 402 108.4 402.4 107.04C402.827 105.68 403.04 104 403.04 102C403.04 100.213 402.747 98.8533 402.16 97.92C401.573 96.96 400.667 96.48 399.44 96.48C398.427 96.48 397.653 96.76 397.12 97.32C396.587 97.8533 396.32 98.56 396.32 99.44C396.32 99.68 396.333 99.9067 396.36 100.12C396.413 100.333 396.467 100.547 396.52 100.76V100.88L393.04 101.2C392.827 100.56 392.72 100.04 392.72 99.64C392.72 98.1733 393.347 96.96 394.6 96C395.88 95.04 397.56 94.56 399.64 94.56C401.693 94.56 403.227 94.9867 404.24 95.84C405.28 96.6933 405.933 97.72 406.2 98.92C406.467 100.12 406.6 101.533 406.6 103.16V110.2C406.6 110.893 406.733 111.36 407 111.6C407.293 111.84 407.773 111.96 408.44 111.96V113H406.32H403.24ZM412.269 113H410.149V111.96C410.816 111.96 411.283 111.84 411.549 111.6C411.843 111.36 411.989 110.893 411.989 110.2V97V96V94.08C411.989 91.7867 412.656 90.0533 413.989 88.88C415.323 87.7067 417.163 87.12 419.509 87.12C420.496 87.12 421.496 87.3333 422.509 87.76C423.549 88.1867 424.376 88.9467 424.989 90.04L421.269 92.6L420.989 92.32C421.203 91.9733 421.309 91.5467 421.309 91.04C421.309 90.4267 421.123 89.92 420.749 89.52C420.376 89.0933 419.829 88.88 419.109 88.88C418.016 88.88 417.189 89.2667 416.629 90.04C416.096 90.8133 415.829 91.9333 415.829 93.4V110.2C415.829 110.893 415.963 111.36 416.229 111.6C416.523 111.84 417.003 111.96 417.669 111.96V113H415.549H412.269ZM413.389 97.76L409.109 96.76V94.92H413.389V97.76ZM419.029 94.92H422.149V97.16H415.429V95.68L419.029 94.92ZM429.651 110.2C429.651 110.893 429.784 111.36 430.051 111.6C430.344 111.84 430.824 111.96 431.491 111.96V113H429.371H426.091H423.971V111.96C424.638 111.96 425.104 111.84 425.371 111.6C425.664 111.36 425.811 110.893 425.811 110.2V97.72C425.811 97.0267 425.664 96.56 425.371 96.32C425.104 96.08 424.638 95.96 423.971 95.96V94.92H426.091H429.651V110.2ZM429.731 101.32C430.051 99.4533 430.624 97.88 431.451 96.6C432.278 95.32 433.478 94.68 435.051 94.68C435.798 94.68 436.478 94.8267 437.091 95.12C437.731 95.3867 438.211 95.7733 438.531 96.28L437.211 99.96L436.771 99.84C436.798 99.2533 436.584 98.7333 436.131 98.28C435.678 97.8267 435.064 97.6 434.291 97.6C432.931 97.6 431.811 98.3733 430.931 99.92C430.078 101.44 429.651 104.013 429.651 107.64H427.811V101.32H429.731ZM445.824 110.2C445.824 110.893 445.957 111.36 446.224 111.6C446.517 111.84 446.997 111.96 447.664 111.96V113H445.544H442.264H440.144V111.96C440.81 111.96 441.277 111.84 441.544 111.6C441.837 111.36 441.984 110.893 441.984 110.2V97.72C441.984 97.0267 441.837 96.56 441.544 96.32C441.277 96.08 440.81 95.96 440.144 95.96V94.92H442.264H445.824V110.2ZM440.984 89.16L443.824 86.32L446.704 89.16L443.824 92.04L440.984 89.16ZM461.32 102.24C461.48 101.387 461.56 100.627 461.56 99.96C461.56 98.84 461.266 97.9867 460.68 97.4C460.12 96.7867 459.293 96.48 458.2 96.48C456.68 96.48 455.493 97.1067 454.64 98.36C453.786 99.6133 453.36 101.413 453.36 103.76C453.36 106.133 453.88 107.96 454.92 109.24C455.96 110.493 457.426 111.12 459.32 111.12C460.733 111.12 461.88 110.773 462.76 110.08C463.64 109.36 464.293 108.533 464.72 107.6L465.52 107.92C465.066 109.28 464.28 110.52 463.16 111.64C462.04 112.733 460.453 113.28 458.4 113.28C455.706 113.28 453.573 112.467 452 110.84C450.453 109.213 449.68 106.92 449.68 103.96C449.68 100.947 450.466 98.6267 452.04 97C453.64 95.3733 455.746 94.56 458.36 94.56C460.653 94.56 462.373 95.1067 463.52 96.2C464.693 97.2933 465.28 98.8533 465.28 100.88C465.28 101.387 465.24 101.947 465.16 102.56L461.32 102.24ZM479.162 113V107.92H479.042C478.722 109.467 478.122 110.747 477.242 111.76C476.389 112.773 475.135 113.28 473.482 113.28C471.722 113.28 470.389 112.773 469.482 111.76C468.575 110.747 468.122 109.2 468.122 107.12C468.122 105.84 468.322 104.733 468.722 103.8L480.602 102.48V103.48L472.162 105.2C471.922 105.787 471.802 106.573 471.802 107.56C471.802 108.627 472.015 109.48 472.442 110.12C472.895 110.76 473.549 111.08 474.402 111.08C475.229 111.08 475.989 110.747 476.682 110.08C477.375 109.413 477.922 108.4 478.322 107.04C478.749 105.68 478.962 104 478.962 102C478.962 100.213 478.669 98.8533 478.082 97.92C477.495 96.96 476.589 96.48 475.362 96.48C474.349 96.48 473.575 96.76 473.042 97.32C472.509 97.8533 472.242 98.56 472.242 99.44C472.242 99.68 472.255 99.9067 472.282 100.12C472.335 100.333 472.389 100.547 472.442 100.76V100.88L468.962 101.2C468.749 100.56 468.642 100.04 468.642 99.64C468.642 98.1733 469.269 96.96 470.522 96C471.802 95.04 473.482 94.56 475.562 94.56C477.615 94.56 479.149 94.9867 480.162 95.84C481.202 96.6933 481.855 97.72 482.122 98.92C482.389 100.12 482.522 101.533 482.522 103.16V110.2C482.522 110.893 482.655 111.36 482.922 111.6C483.215 111.84 483.695 111.96 484.362 111.96V113H482.242H479.162Z" fill="white"/>
</g>
</g>
</svg>
